<?xml version="1.0" encoding="utf-8"?>
<!-- Generator: Adobe Illustrator 27.0.0, SVG Export Plug-In . SVG Version: 6.00 Build 0)  -->
<svg version="1.1" id="Layer_2_00000019651529518043511980000012975258611933642930_"
	 xmlns="http://www.w3.org/2000/svg" xmlns:xlink="http://www.w3.org/1999/xlink" x="0px" y="0px" viewBox="0 0 104.6 97.4"
	 style="enable-background:new 0 0 104.6 97.4;" xml:space="preserve">
<style type="text/css">
	.st0{fill:url(#SVGID_1_);}
	.st1{fill:url(#SVGID_00000030474830347672398540000013751839875064016788_);}
	.st2{fill:#3A4151;}
	.st3{fill:#E74C4C;}
	.st4{fill:#FAC508;}
</style>
<g id="wiYxD1_00000003068261280877933240000009816165504832815027_">
	
		<image style="overflow:visible;enable-background:new    ;" width="3337" height="1488" id="wiYxD1" xlink:href="26043D8226993F50.jpg"  transform="matrix(0.4999 0 0 0.4999 -690.4163 689.4382)">
	</image>
</g>
<linearGradient id="SVGID_1_" gradientUnits="userSpaceOnUse" x1="1104.9412" y1="-1058.5056" x2="1184.7148" y2="-991.5649" gradientTransform="matrix(1 0 0 -1 0 100)">
	<stop  offset="0" style="stop-color:#3D7E44"/>
	<stop  offset="1" style="stop-color:#EBF6EE"/>
</linearGradient>
<path class="st0" d="M1124.3,1145.9h-12l0,0h12.8C1124.8,1145.9,1124.6,1145.9,1124.3,1145.9z M1125.1,1145.9c0.2,0,0.4,0,0.6,0l0,0
	H1125.1z M1124.3,1159.3c0.5,0,0.9,0,1.4,0.1v-0.1H1124.3z M1066.4,1172.7L1066.4,1172.7l1.4,0.1
	C1067.4,1172.7,1066.9,1172.7,1066.4,1172.7z M1112.3,1139.3v-8.2c0-5.8-4.7-10.4-10.4-10.4h-34c-5.8,0-10.4,4.7-10.4,10.4v31.1
	c0,2.4,0.8,4.6,2.1,6.3c1.6,2.2,4.1,3.7,6.9,4v0.1h35.4c4.5,0,8.4-2.9,9.8-6.9h13.7c-1.7,11.5-11.6,20.3-23.6,20.3h-34
	c-0.5,0-0.9,0-1.4,0c-12.5-0.7-22.4-11.1-22.4-23.8v-31.1c0-13.1,10.7-23.8,23.8-23.8h34c13.1,0,23.8,10.7,23.8,23.8v8.2H1112.3z
	 M1067.8,1186.1c-0.5,0-0.9,0-1.4,0l0,0h13.4l0,0H1067.8z M1066.4,1172.7L1066.4,1172.7l1.4,0.1
	C1067.4,1172.7,1066.9,1172.7,1066.4,1172.7z M1124.3,1145.9h-21.8l0,0h22.6C1124.8,1145.9,1124.6,1145.9,1124.3,1145.9z
	 M1124.3,1159.3c0.5,0,0.9,0,1.4,0.1l0,0v-0.1H1124.3z M1148.1,1169.7v31.1c0,13.2-10.7,23.8-23.8,23.8h-34
	c-13.2,0-23.8-10.7-23.8-23.8v-8.2h13.4v8.2c0,5.8,4.7,10.4,10.4,10.4h34c5.8,0,10.4-4.7,10.4-10.4v-31.1c0-5.3-3.9-9.6-9-10.3v-0.1
	h-35.5c-4.5,0-8.4,2.9-9.8,6.9h-13.7c1.7-11.5,11.6-20.3,23.6-20.3h12.3l0,0h22.6c0.2,0,0.4,0,0.6,0
	C1138.2,1146.6,1148.1,1157,1148.1,1169.7z M1066.4,1172.7L1066.4,1172.7l1.4,0.1C1067.4,1172.7,1066.9,1172.7,1066.4,1172.7z
	 M1124.3,1145.9h-21.8l0,0h22.6C1124.8,1145.9,1124.6,1145.9,1124.3,1145.9z M1124.3,1159.3c0.5,0,0.9,0,1.4,0.1l0,0v-0.1H1124.3z"
	/>
<g>
	
		<linearGradient id="SVGID_00000175295958495469932700000010135967133222602148_" gradientUnits="userSpaceOnUse" x1="1401.9619" y1="-567.1454" x2="1458.1981" y2="-519.9557" gradientTransform="matrix(1 0 0 -1 0 100)">
		<stop  offset="0" style="stop-color:#3D7E44"/>
		<stop  offset="1" style="stop-color:#EBF6EE"/>
	</linearGradient>
	<path style="fill:url(#SVGID_00000175295958495469932700000010135967133222602148_);" d="M1415.6,658.3h-8.5l0,0h9
		C1416,658.3,1415.8,658.3,1415.6,658.3z M1416.2,658.3c0.1,0,0.3,0,0.4,0l0,0H1416.2z M1415.6,667.7c0.3,0,0.7,0,1,0.1v-0.1H1415.6
		z M1374.8,677.1L1374.8,677.1l1,0.1C1375.5,677.2,1375.2,677.2,1374.8,677.1z M1407.2,653.6v-5.8c0-4.1-3.3-7.4-7.4-7.4h-24
		c-4.1,0-7.4,3.3-7.4,7.4v22c0,1.7,0.6,3.2,1.5,4.4c1.2,1.5,2.9,2.6,4.9,2.8v0.1h25c3.2,0,5.9-2,6.9-4.9h9.7
		c-1.2,8.1-8.2,14.3-16.6,14.3h-24c-0.3,0-0.7,0-1,0c-8.8-0.5-15.8-7.8-15.8-16.8v-22c0-9.3,7.5-16.8,16.8-16.8h24
		c9.3,0,16.8,7.5,16.8,16.8v5.8h-9.4V653.6z M1375.8,686.6c-0.3,0-0.7,0-1,0l0,0h9.4l0,0H1375.8z M1374.8,677.1L1374.8,677.1l1,0.1
		C1375.5,677.2,1375.2,677.2,1374.8,677.1z M1415.6,658.3h-15.3l0,0h15.9C1416,658.3,1415.8,658.3,1415.6,658.3z M1415.6,667.7
		c0.3,0,0.7,0,1,0.1l0,0v-0.1H1415.6z M1432.4,675.1v22c0,9.3-7.5,16.8-16.8,16.8h-24c-9.3,0-16.8-7.5-16.8-16.8v-5.7h9.4v5.7
		c0,4.1,3.3,7.4,7.4,7.4h24c4.1,0,7.4-3.3,7.4-7.4v-22c0-3.7-2.8-6.8-6.3-7.3v-0.1h-25c-3.2,0-5.9,2-6.9,4.9h-9.7
		c1.2-8.1,8.2-14.3,16.6-14.3h8.6l0,0h15.9c0.1,0,0.3,0,0.4,0C1425.4,658.8,1432.4,666.1,1432.4,675.1z M1374.8,677.1L1374.8,677.1
		l1,0.1C1375.5,677.2,1375.2,677.2,1374.8,677.1z M1415.6,658.3h-15.3l0,0h15.9C1416,658.3,1415.8,658.3,1415.6,658.3z
		 M1415.6,667.7c0.3,0,0.7,0,1,0.1l0,0v-0.1H1415.6z"/>
	<g>
		<path class="st2" d="M1458.6,701.8v-56.9h21.1c4,0,7.3,0.6,10,1.9c2.7,1.3,4.6,3,6,5.2c1.3,2.2,2,4.7,2,7.4c0,2.9-0.6,5.3-1.9,7.2
			c-1.3,2-2.9,3.5-5,4.5c-2,1.1-4.2,1.7-6.5,1.8l1.2-0.8c2.5,0.1,4.8,0.7,6.8,2s3.7,3,4.9,5.1c1.2,2.1,1.8,4.4,1.8,7
			c0,2.9-0.7,5.6-2.2,7.9c-1.4,2.4-3.5,4.2-6.3,5.6c-2.7,1.4-6.1,2-10.1,2L1458.6,701.8L1458.6,701.8z M1466.7,669.4h12
			c3.4,0,6-0.8,7.8-2.4c1.8-1.6,2.7-3.8,2.7-6.6c0-2.7-0.9-4.9-2.7-6.5c-1.8-1.6-4.4-2.4-8-2.4h-11.9L1466.7,669.4L1466.7,669.4z
			 M1466.7,695h12.6c3.5,0,6.3-0.8,8.3-2.5s3-4,3-7s-1-5.4-3.1-7.2s-4.9-2.7-8.4-2.7h-12.4V695z"/>
		<path class="st2" d="M1512.7,653c-1.6,0-2.9-0.5-3.9-1.5s-1.5-2.2-1.5-3.7s0.5-2.7,1.5-3.6c1-0.9,2.3-1.4,3.9-1.4
			c1.5,0,2.8,0.5,3.8,1.4s1.5,2.2,1.5,3.6c0,1.5-0.5,2.8-1.5,3.7C1515.5,652.5,1514.3,653,1512.7,653z M1508.7,701.8v-41h8.1v41
			H1508.7z"/>
		<path class="st2" d="M1547.4,702.7c-3.9,0-7.4-0.9-10.5-2.7s-5.5-4.3-7.2-7.5s-2.6-7-2.6-11.2c0-4.3,0.9-8.1,2.6-11.3
			c1.8-3.2,4.2-5.7,7.3-7.5c3.1-1.8,6.6-2.7,10.4-2.7c3.9,0,7.4,0.9,10.4,2.7s5.5,4.3,7.2,7.5c1.8,3.2,2.7,7,2.7,11.3
			s-0.9,8-2.7,11.3c-1.8,3.2-4.2,5.7-7.3,7.5C1554.7,701.8,1551.3,702.7,1547.4,702.7z M1547.3,695.7c2.2,0,4.2-0.5,6-1.6
			s3.3-2.7,4.4-4.9s1.7-4.8,1.7-8s-0.6-5.9-1.7-8s-2.6-3.8-4.4-4.8c-1.8-1.1-3.8-1.6-5.9-1.6c-2.2,0-4.2,0.5-6,1.6s-3.3,2.7-4.4,4.8
			s-1.7,4.8-1.7,8c0,3.1,0.6,5.8,1.7,8s2.6,3.8,4.4,4.9C1543.2,695.2,1545.2,695.7,1547.3,695.7z"/>
		<path class="st2" d="M1574.6,701.8v-6.6l22-27.7h-21.7v-6.8h31v6.6l-22.1,27.7h22.5v6.8H1574.6z"/>
		<path class="st2" d="M1620,719.7l10-22.5h-2.4l-16.2-36.4h8.9l12.8,29.8l12.9-29.8h8.5l-26,58.9H1620z"/>
	</g>
</g>
<g>
	<g>
		<path class="st3" d="M61.3,58.5c-1,0-1.9,0.7-2.2,1.6c-0.5,1.5-1.2,2.7-2.2,3.6c-1.1,1-2.6,1.8-4.6,2.3c-1.8,0.4-3.9,0.7-6.4,0.7
			H35.8h-7c-0.7,0-1.3,0-2-0.1c-1.8-0.1-3.3-0.3-4.7-0.7c-1.8-0.5-3.3-1.2-4.3-2.2c-2.1-2-3.1-5.4-3.1-10.2v-9.6
			c0-4.9,1-8.3,3.1-10.3c1.6-1.6,4.2-2.5,7.7-2.9c0.8-0.1,1.6-0.6,1.9-1.4c0.8-2.1,1.9-4,3.1-5.7c1.1-1.6,0.1-3.8-1.9-3.8h0v0
			c-17,0-25.5,8-25.5,24v9.6c0,8.2,2.1,14.2,6.2,18.1c4.1,3.9,10.6,5.9,19.3,5.9h0c0,0,0,0,0,0h4.7h13.5v0c1.8,0,3.6-0.2,5.2-0.4
			c5.6-0.7,9.9-2.6,13-5.5c1.4-1.4,2.6-3,3.6-4.9c0.8-1.6,1.4-3.4,1.9-5.4c0.3-1.5-0.8-2.8-2.3-2.8H61.3z"/>
	</g>
	<g>
		<path class="st4" d="M77,19.9L77,19.9l-6.4,0h-12v0c-2.3,0-4.4,0.1-6.3,0.4c-7.9,1.1-13.3,4.6-16.3,10.3c-1.2,2.4-2.1,5.1-2.5,8.3
			c-0.2,1.6-0.3,3.2-0.3,5v9.6c0,1,0,1.9,0.1,2.8c0.1,1.2,1.1,2.2,2.3,2.2h6.8c1.4,0,2.4-1.2,2.3-2.6c-0.1-0.8-0.1-1.6-0.1-2.4v-9.6
			c0-1.9,0.2-3.5,0.5-5c0.5-2.3,1.4-4.1,2.7-5.4c1.1-1,2.6-1.8,4.6-2.3c1.8-0.5,3.9-0.7,6.3-0.7v0.1h10H77v-0.1c0.2,0,0.4,0,0.6,0
			c4.3,0.2,7.3,1.2,9.2,2.9c2.1,2,3.1,5.4,3.1,10.3v9.6c0,4.8-1,8.2-3.1,10.2c-1.6,1.5-4.1,2.5-7.5,2.8c-0.9,0.1-1.6,0.6-1.9,1.4
			c-0.8,2.1-1.8,4-3.1,5.8c-1.1,1.6,0,3.7,1.9,3.7h0.8v0c8.1-0.2,14.2-2.1,18.2-5.9c4.2-3.9,6.2-10,6.2-18.1v-9.6
			C101.3,28.3,93.2,20.3,77,19.9z"/>
	</g>
</g>
</svg>
