<?xml version="1.0" encoding="utf-8"?>
<!-- Generator: Adobe Illustrator 27.0.0, SVG Export Plug-In . SVG Version: 6.00 Build 0)  -->
<svg version="1.1" id="Layer_2_00000019651529518043511980000012975258611933642930_"
	 xmlns="http://www.w3.org/2000/svg" xmlns:xlink="http://www.w3.org/1999/xlink" x="0px" y="0px" viewBox="0 0 90 90"
	 style="enable-background:new 0 0 90 90;" xml:space="preserve">
<g>
	<path d="M87.9,37.4C85,22.7,76.8,12.1,63.4,5.5c-4.8-2.3-9.9-3.6-15.2-4c-0.2,0-0.4-0.1-0.7-0.1h-5.1c-1.7,0.2-3.4,0.4-5,0.7
		C23.6,4.7,13.3,12.3,6.5,24.5c-2.9,5.3-4.6,11.1-5,17.2c0,0.2-0.1,0.5-0.1,0.7v5.1c0.2,1.7,0.4,3.4,0.7,5
		c2.9,14.7,11,25.3,24.4,31.9c4.8,2.4,9.9,3.6,15.3,4c0.2,0,0.4,0.1,0.7,0.1h5.1c1.7-0.2,3.4-0.4,5-0.7
		c13.8-2.7,24.1-10.2,30.9-22.5c2.9-5.3,4.6-11.1,5-17.2c0-0.2,0.1-0.5,0.1-0.7v-5.1C88.4,40.8,88.2,39.1,87.9,37.4z M45,83.2
		C24,83.2,6.9,66.1,6.8,45C6.8,24,23.9,6.8,45,6.8c21,0,38.1,17.1,38.2,38.1C83.2,66,66.1,83.2,45,83.2z"/>
	<path d="M46.6,64c-4.5,0.3-8.6-0.7-12.3-3.2c-5.5-3.8-8.2-9.1-8.4-15.8h-5.3c-0.2,7.6,3.8,16.6,12.5,21.4
		c8.7,4.7,17.4,4.3,25.6-1.1c7.1-4.7,10.6-11.7,10.8-20.2h-5.4C63.8,55.9,55.5,63.3,46.6,64z"/>
	<path d="M31.4,36.8c3,0,5.4-2.5,5.4-5.4c0-3-2.5-5.5-5.5-5.5c-3,0-5.4,2.5-5.4,5.4C25.9,34.4,28.4,36.8,31.4,36.8z"/>
	<path d="M58.6,36.8c3,0,5.4-2.4,5.4-5.4c0-3-2.5-5.5-5.4-5.5c-3,0-5.4,2.4-5.4,5.4C53.2,34.3,55.6,36.8,58.6,36.8z"/>
</g>
</svg>
